<svg width="465" height="505" viewBox="0 0 465 505" fill="none" xmlns="http://www.w3.org/2000/svg">
<path d="M231.044 505.003C224.421 505.003 218.109 503.675 213.389 500.95L7.1649 382.187C2.54795 379.531 0.00596881 375.84 0.00585139 371.787C0.00571049 366.924 3.6714 362.026 10.0519 358.352L210.493 242.937C222.476 236.039 240.702 235.28 251.094 241.282L457.318 360.044C461.935 362.7 464.477 366.391 464.477 370.444C464.477 375.308 460.811 380.206 454.431 383.879L253.989 499.294C247.436 503.071 239.015 505.003 231.044 505.003ZM233.439 237.988C225.606 237.988 217.324 239.885 210.874 243.61L10.4323 359.025C4.29391 362.56 0.783838 367.217 0.783971 371.787C0.78408 375.547 3.18773 378.997 7.5453 381.515L213.769 500.277C223.954 506.141 241.816 505.4 253.609 498.622L454.051 383.207C460.189 379.671 463.699 375.015 463.699 370.444C463.699 366.684 461.295 363.235 456.938 360.717L250.714 241.955C246.097 239.298 239.906 237.988 233.439 237.988Z" fill="#6EE8FC"/>
<path d="M181.186 275.724C189.781 275.724 196.748 268.774 196.748 260.201C196.748 251.629 189.78 244.679 181.185 244.679C172.59 244.679 165.623 251.629 165.623 260.201C165.624 268.774 172.591 275.723 181.186 275.724Z" fill="url(#paint0_radial_808_1084)"/>
<path d="M185.63 260.202C185.63 262.651 183.642 264.634 181.186 264.634C178.731 264.634 176.742 262.651 176.742 260.202C176.742 257.753 178.731 255.77 181.186 255.77C183.641 255.77 185.63 257.753 185.63 260.202Z" fill="#6EE8FC"/>
<path d="M28.6896 350.747C28.6897 353.196 26.7013 355.179 24.2459 355.179C21.7905 355.179 19.802 353.196 19.8019 350.747C19.8018 348.298 21.7903 346.314 24.2456 346.314C26.701 346.332 28.6896 348.315 28.6896 350.747Z" fill="#6EE8FC"/>
<path d="M364.896 439.413C367.351 439.413 369.34 437.428 369.34 434.98C369.34 432.532 367.35 430.548 364.896 430.548C362.442 430.548 360.452 432.532 360.452 434.98C360.452 437.428 362.442 439.413 364.896 439.413Z" fill="#6EE8FC"/>
<path d="M398.2 418.01C398.2 420.459 396.212 422.442 393.757 422.442C391.301 422.442 389.313 420.459 389.313 418.01C389.313 415.561 391.301 413.577 393.756 413.577C396.212 413.594 398.2 415.578 398.2 418.01Z" fill="#6EE8FC"/>
<path d="M427.043 401.315C427.043 403.764 425.055 405.747 422.599 405.747C420.144 405.747 418.155 403.764 418.155 401.315C418.155 398.866 420.144 396.882 422.599 396.882C425.055 396.882 427.043 398.866 427.043 401.315Z" fill="#6EE8FC"/>
<path d="M212.593 466.784L65.6119 382.153C54.4413 375.719 55.8415 364.492 68.7407 357.058L209.456 276.034C222.355 268.6 241.86 267.807 253.031 274.24L400.012 358.871C411.183 365.305 409.783 376.532 396.884 383.966L256.168 464.99C243.269 472.424 223.764 473.217 212.593 466.784Z" fill="#0A0E2D"/>
<path d="M426.278 283.9L426.277 253.597L347.877 253.597L255.192 200.217C242.828 193.094 221.213 193.991 206.931 202.217L117.708 253.595L39.2737 253.595L39.275 285.622L39.3441 285.622C38.9985 290.451 41.6961 295.091 47.6273 298.523L210.414 392.261C222.778 399.384 244.392 398.487 258.675 390.26L414.52 300.509C422.768 295.766 426.745 289.626 426.278 283.9Z" fill="#312A91"/>
<path opacity="0.5" d="M426.278 283.9L426.277 253.597L347.877 253.597L255.192 200.217C242.828 193.094 221.213 193.991 206.931 202.217L117.708 253.595L39.2737 253.595L39.275 285.622L39.3441 285.622C38.9985 290.451 41.6961 295.091 47.6273 298.523L210.414 392.261C222.778 399.384 244.392 398.487 258.675 390.26L414.52 300.509C422.768 295.766 426.745 289.626 426.278 283.9Z" fill="url(#paint1_linear_808_1084)"/>
<path d="M255.212 200.218C249.263 196.785 241.188 195.233 232.802 195.44L232.81 397.021C241.87 396.796 251.259 394.52 258.694 390.26L414.538 300.509C422.785 295.766 426.745 289.626 426.295 283.9L426.294 253.598L347.895 253.597L255.212 200.218Z" fill="url(#paint2_linear_808_1084)"/>
<path d="M210.431 360.234L47.6448 266.496C35.2811 259.373 36.8195 246.938 51.102 238.711L206.947 148.96C221.23 140.733 242.844 139.836 255.208 146.959L417.994 240.697C430.358 247.82 428.82 260.255 414.537 268.482L258.692 358.233C244.392 366.46 222.795 367.357 210.431 360.234Z" fill="#312A91"/>
<path opacity="0.5" d="M210.431 360.234L47.6448 266.496C35.2811 259.373 36.8195 246.938 51.102 238.711L206.947 148.96C221.23 140.733 242.844 139.836 255.208 146.959L417.994 240.697C430.358 247.82 428.82 260.255 414.537 268.482L258.692 358.233C244.392 366.46 222.795 367.357 210.431 360.234Z" fill="url(#paint3_linear_808_1084)"/>
<path d="M214.77 339.52L83.6106 263.995C73.6505 258.252 74.8951 248.232 86.3937 241.609L211.962 169.294C223.478 162.671 240.873 161.947 250.851 167.69L382.01 243.215C391.97 248.958 390.726 258.978 379.227 265.601L253.659 337.916C242.143 344.539 224.747 345.246 214.77 339.52Z" fill="#5CFFF3"/>
<path d="M86.3943 251.389L211.964 179.073C223.48 172.45 240.875 171.726 250.853 177.469L382.013 252.995C384.469 254.409 386.25 256.099 387.357 257.91C390.244 252.615 388.584 246.975 382.013 243.198L250.852 167.673C240.892 161.93 223.479 162.654 211.963 169.277L86.394 241.592C77.731 246.577 74.8781 253.493 78.2675 259.064C79.7718 256.321 82.4692 253.648 86.3943 251.389Z" fill="#42E8E0"/>
<path opacity="0.5" d="M215.893 360.234L53.1089 266.496C40.7454 259.373 37.7882 248.905 56.5661 238.712L212.409 148.961C219.429 144.908 228.23 142.648 236.824 142.234C226.605 141.769 215.469 144.045 206.945 148.96L51.102 238.712C36.8198 246.938 35.264 259.373 47.6449 266.496L210.429 360.234C216.723 363.856 225.386 365.391 234.273 364.959C227.357 364.649 220.873 363.097 215.893 360.234Z" fill="url(#paint4_linear_808_1084)"/>
<path opacity="0.5" d="M414.537 282.02L258.69 371.772C244.408 379.999 222.793 380.896 210.429 373.773L47.6415 280.034C41.693 276.619 38.9953 271.963 39.3583 267.133L39.2891 267.133L39.2894 273.773L39.3585 273.773C39.0129 278.603 41.7106 283.242 47.6418 286.674L210.429 380.413C222.793 387.536 244.408 386.639 258.69 378.412L414.537 288.66C422.785 283.917 426.745 277.777 426.295 272.051L426.294 265.411C426.744 271.137 422.767 277.277 414.537 282.02Z" fill="url(#paint5_linear_808_1084)"/>
<path d="M386.266 273.189C388.047 274.206 388.047 275.862 386.266 276.897C384.485 277.914 381.615 277.914 379.834 276.897C378.053 275.879 378.053 274.223 379.834 273.189C381.615 272.154 384.485 272.171 386.266 273.189Z" fill="#FCCC6B"/>
<path d="M396.296 267.411C398.077 268.429 398.077 270.084 396.296 271.119C394.515 272.154 391.644 272.137 389.863 271.119C388.082 270.102 388.082 268.446 389.863 267.411C391.627 266.394 394.515 266.394 396.296 267.411Z" fill="#FCCC6B"/>
<path d="M406.308 261.651C408.089 262.668 408.089 264.341 406.308 265.359C404.527 266.376 401.657 266.376 399.876 265.359C398.095 264.341 398.095 262.685 399.876 261.651C401.657 260.616 404.527 260.633 406.308 261.651Z" fill="#FCCC6B"/>
<path opacity="0.5" d="M218.66 321.222L115.773 261.978C107.957 257.477 108.942 249.612 117.968 244.421L216.459 187.697C225.485 182.505 239.145 181.936 246.961 186.438L349.848 245.681C357.664 250.183 356.679 258.047 347.653 263.239L249.162 319.963C240.136 325.154 226.476 325.723 218.66 321.222Z" fill="#0B0244"/>
<path opacity="0.5" d="M426.277 253.598C426.312 253.028 426.329 252.442 426.277 251.89L426.274 167.225L291.417 167.828L255.19 146.976C242.827 139.853 221.212 140.75 206.93 148.977L173.264 168.362L39.2715 168.947L39.2748 253.612L39.344 253.612C38.9983 258.424 41.696 263.081 47.6271 266.513L210.413 360.251C222.777 367.374 244.392 366.477 258.674 358.25L414.519 268.499C421.955 264.222 425.897 258.806 426.277 253.598Z" fill="#5CFFF3"/>
<path d="M426.277 167.226L426.276 136.923L347.876 136.923L255.191 83.5433C242.827 76.4202 221.213 77.3169 206.93 85.5436L117.707 136.921L39.2728 136.921L39.274 168.948L39.3431 168.948C38.9975 173.76 41.6952 178.417 47.6263 181.849L210.413 275.587C222.777 282.71 244.391 281.813 258.674 273.587L414.519 183.835C422.767 179.092 426.744 172.935 426.277 167.226Z" fill="#312A91"/>
<path opacity="0.5" d="M426.277 167.226L426.276 136.923L347.876 136.923L255.191 83.5433C242.827 76.4202 221.213 77.3169 206.93 85.5436L117.707 136.921L39.2728 136.921L39.274 168.948L39.3431 168.948C38.9975 173.76 41.6952 178.417 47.6263 181.849L210.413 275.587C222.777 282.71 244.391 281.813 258.674 273.587L414.519 183.835C422.767 179.092 426.744 172.935 426.277 167.226Z" fill="url(#paint6_linear_808_1084)"/>
<path d="M255.211 83.5428C249.262 80.1107 241.187 78.5584 232.801 78.7653L232.809 280.346C241.869 280.122 251.258 277.845 258.693 273.585L414.537 183.834C422.784 179.091 426.744 172.951 426.294 167.225L426.293 136.923L347.894 136.922L255.211 83.5428Z" fill="url(#paint7_linear_808_1084)"/>
<path d="M210.43 243.542L47.6438 149.805C35.2801 142.682 36.8186 130.247 51.1011 122.02L206.946 32.2682C221.229 24.0415 242.843 23.1448 255.207 30.2679L417.993 124.006C430.357 131.129 428.819 143.564 414.536 151.79L258.691 241.542C244.391 249.786 222.794 250.665 210.43 243.542Z" fill="#312A91"/>
<path opacity="0.5" d="M210.43 243.542L47.6438 149.805C35.2801 142.682 36.8186 130.247 51.1011 122.02L206.946 32.2682C221.229 24.0415 242.843 23.1448 255.207 30.2679L417.993 124.006C430.357 131.129 428.819 143.564 414.536 151.79L258.691 241.542C244.391 249.786 222.794 250.665 210.43 243.542Z" fill="url(#paint8_linear_808_1084)"/>
<path opacity="0.5" d="M215.892 243.542L53.1079 149.805C40.7444 142.682 37.7872 132.213 56.5651 122.02L212.408 32.2691C219.428 28.2162 228.229 25.9569 236.823 25.543C226.604 25.0773 215.468 27.3538 206.944 32.2691L51.1011 122.02C36.8188 130.247 35.2631 142.682 47.6439 149.805L210.428 243.542C216.722 247.164 225.385 248.699 234.273 248.268C227.356 247.958 220.872 246.423 215.892 243.542Z" fill="url(#paint9_linear_808_1084)"/>
<path opacity="0.5" d="M414.536 165.345L258.689 255.097C244.407 263.324 222.792 264.221 210.428 257.098L47.6405 163.359C41.6921 159.944 38.9944 155.288 39.3573 150.459L39.2882 150.459L39.2884 157.099L39.3576 157.099C39.0119 161.911 41.7096 166.567 47.6408 169.999L210.428 263.738C222.792 270.861 244.407 269.964 258.689 261.737L414.536 171.985C422.784 167.242 426.744 161.102 426.294 155.376L426.294 148.736C426.743 154.445 422.766 160.602 414.536 165.345Z" fill="url(#paint10_linear_808_1084)"/>
<path opacity="0.2" d="M219.867 143.701C223.257 145.649 223.257 148.806 219.868 150.754C216.479 152.703 211.014 152.703 207.625 150.754C204.236 148.805 204.236 145.649 207.625 143.7C211.014 141.752 216.478 141.752 219.867 143.701Z" fill="#5CFFF3"/>
<path opacity="0.6" d="M238.94 132.714C242.329 134.663 242.329 137.819 238.94 139.768C235.551 141.717 230.087 141.717 226.697 139.768C223.308 137.819 223.308 134.663 226.697 132.714C230.069 130.765 235.55 130.765 238.94 132.714Z" fill="#5CFFF3"/>
<path d="M257.995 121.745C261.384 123.694 261.385 126.85 257.996 128.799C254.606 130.748 249.142 130.748 245.753 128.799C242.364 126.85 242.364 123.694 245.753 121.745C249.142 119.796 254.623 119.796 257.995 121.745Z" fill="#5CFFF3"/>
<path opacity="0.5" d="M231.749 220.518C225.714 220.518 219.938 219.293 215.65 216.827L95.2808 147.511C90.9059 144.993 88.485 141.44 88.4849 137.525C88.4847 132.886 91.8911 128.264 97.8393 124.849L213.069 58.4838C223.945 52.2233 240.511 51.5507 249.969 57.0008L370.339 126.316C374.713 128.834 377.134 132.387 377.134 136.302C377.135 140.942 373.728 145.564 367.78 148.979L252.55 215.344C246.619 218.759 238.994 220.518 231.749 220.518ZM216.86 214.688C225.645 219.759 241.103 219.086 251.323 213.205L366.552 146.84C371.705 143.874 374.679 140.01 374.679 136.285C374.679 133.284 372.708 130.49 369.128 128.42L248.759 59.1049C239.975 54.0343 224.516 54.7068 214.297 60.5879L99.067 126.953C93.8969 129.92 90.9402 133.766 90.9403 137.508C90.9404 140.509 92.9117 143.303 96.5084 145.373L216.86 214.688Z" fill="#0B0244"/>
<path d="M231.042 267.774C224.419 267.774 218.107 266.446 213.387 263.721L7.16294 144.959C2.54599 142.303 0.00401568 138.612 0.00389827 134.559C0.00375736 129.695 3.66944 124.797 10.05 121.124L210.491 5.70889C222.474 -1.18978 240.7 -1.94856 251.092 4.05338L457.316 122.816C461.933 125.472 464.475 129.163 464.475 133.216C464.475 138.079 460.809 142.977 454.429 146.651L253.987 262.066C247.434 265.843 239.013 267.774 231.042 267.774ZM233.437 0.776409C225.604 0.776372 217.322 2.67347 210.872 6.39875L10.4304 121.813C4.29196 125.349 0.781886 130.006 0.782018 134.576C0.782127 138.336 3.18577 141.785 7.54334 144.303L213.767 263.066C223.952 268.93 241.832 268.188 253.607 261.41L454.049 145.996C460.187 142.46 463.697 137.803 463.697 133.233C463.697 129.473 461.293 126.024 456.936 123.506L250.712 4.72601C246.095 2.06998 239.904 0.77644 233.437 0.776409Z" fill="#6EE8FC"/>
<path d="M185.628 22.9735C185.628 25.4225 183.64 27.4059 181.184 27.4059C178.729 27.4059 176.74 25.4225 176.74 22.9734C176.74 20.5244 178.729 18.541 181.184 18.541C183.639 18.5583 185.628 20.5417 185.628 22.9735Z" fill="#6EE8FC"/>
<path d="M24.244 117.968C26.6982 117.968 28.6878 115.983 28.6877 113.536C28.6876 111.088 26.698 109.103 24.2437 109.103C21.7894 109.103 19.7999 111.088 19.7999 113.535C19.8 115.983 21.7897 117.968 24.244 117.968Z" fill="#6EE8FC"/>
<path d="M369.338 197.752C369.338 200.201 367.35 202.184 364.894 202.184C362.439 202.184 360.45 200.201 360.45 197.752C360.45 195.303 362.439 193.319 364.894 193.319C367.349 193.319 369.338 195.303 369.338 197.752Z" fill="#6EE8FC"/>
<path d="M393.755 185.231C396.209 185.231 398.199 183.246 398.198 180.798C398.198 178.35 396.209 176.366 393.754 176.366C391.3 176.366 389.311 178.35 389.311 180.798C389.311 183.246 391.3 185.231 393.755 185.231Z" fill="#6EE8FC"/>
<path d="M427.041 164.086C427.041 166.535 425.053 168.519 422.597 168.519C420.142 168.519 418.154 166.535 418.153 164.086C418.153 161.637 420.142 159.654 422.597 159.654C425.053 159.671 427.041 161.654 427.041 164.086Z" fill="#6EE8FC"/>
<defs>
<radialGradient id="paint0_radial_808_1084" cx="0" cy="0" r="1" gradientUnits="userSpaceOnUse" gradientTransform="translate(181.189 260.202) scale(15.5646 15.5245)">
<stop stop-color="#42E8E0"/>
<stop offset="0.0225" stop-color="#3FD8D7"/>
<stop offset="0.0983" stop-color="#36A9BA"/>
<stop offset="0.1786" stop-color="#2E7FA0"/>
<stop offset="0.2622" stop-color="#275C8B"/>
<stop offset="0.35" stop-color="#223F79"/>
<stop offset="0.4433" stop-color="#1D296C"/>
<stop offset="0.5449" stop-color="#1A1962"/>
<stop offset="0.6608" stop-color="#19105D"/>
<stop offset="0.8226" stop-color="#180D5B"/>
</radialGradient>
<linearGradient id="paint1_linear_808_1084" x1="-46.2718" y1="296.239" x2="340.766" y2="296.224" gradientUnits="userSpaceOnUse">
<stop stop-color="#42E8E0"/>
<stop offset="0.1022" stop-color="#3CCACE"/>
<stop offset="0.3445" stop-color="#2F87A5"/>
<stop offset="0.564" stop-color="#255385"/>
<stop offset="0.7534" stop-color="#1E2D6E"/>
<stop offset="0.905" stop-color="#1A1660"/>
<stop offset="1" stop-color="#180D5B"/>
</linearGradient>
<linearGradient id="paint2_linear_808_1084" x1="232.802" y1="296.233" x2="426.318" y2="296.225" gradientUnits="userSpaceOnUse">
<stop stop-color="#2B237C"/>
<stop offset="1" stop-color="#180D5B"/>
</linearGradient>
<linearGradient id="paint3_linear_808_1084" x1="39.2806" y1="253.594" x2="426.345" y2="253.579" gradientUnits="userSpaceOnUse">
<stop stop-color="#42E8E0"/>
<stop offset="0.1022" stop-color="#3CCACE"/>
<stop offset="0.3445" stop-color="#2F87A5"/>
<stop offset="0.564" stop-color="#255385"/>
<stop offset="0.7534" stop-color="#1E2D6E"/>
<stop offset="0.905" stop-color="#1A1660"/>
<stop offset="1" stop-color="#180D5B"/>
</linearGradient>
<linearGradient id="paint4_linear_808_1084" x1="39.2806" y1="253.601" x2="236.827" y2="253.593" gradientUnits="userSpaceOnUse">
<stop stop-color="#42E8E0"/>
<stop offset="0.1022" stop-color="#3CCACE"/>
<stop offset="0.3445" stop-color="#2F87A5"/>
<stop offset="0.564" stop-color="#255385"/>
<stop offset="0.7534" stop-color="#1E2D6E"/>
<stop offset="0.905" stop-color="#1A1660"/>
<stop offset="1" stop-color="#180D5B"/>
</linearGradient>
<linearGradient id="paint5_linear_808_1084" x1="91.9257" y1="365.932" x2="415.386" y2="153.95" gradientUnits="userSpaceOnUse">
<stop stop-color="#42E8E0"/>
<stop offset="0.1022" stop-color="#3CCACE"/>
<stop offset="0.3445" stop-color="#2F87A5"/>
<stop offset="0.564" stop-color="#255385"/>
<stop offset="0.7534" stop-color="#1E2D6E"/>
<stop offset="0.905" stop-color="#1A1660"/>
<stop offset="1" stop-color="#180D5B"/>
</linearGradient>
<linearGradient id="paint6_linear_808_1084" x1="-46.2728" y1="179.554" x2="340.765" y2="179.539" gradientUnits="userSpaceOnUse">
<stop stop-color="#42E8E0"/>
<stop offset="0.1022" stop-color="#3CCACE"/>
<stop offset="0.3445" stop-color="#2F87A5"/>
<stop offset="0.564" stop-color="#255385"/>
<stop offset="0.7534" stop-color="#1E2D6E"/>
<stop offset="0.905" stop-color="#1A1660"/>
<stop offset="1" stop-color="#180D5B"/>
</linearGradient>
<linearGradient id="paint7_linear_808_1084" x1="232.801" y1="179.546" x2="426.317" y2="179.539" gradientUnits="userSpaceOnUse">
<stop stop-color="#2B237C"/>
<stop offset="1" stop-color="#180D5B"/>
</linearGradient>
<linearGradient id="paint8_linear_808_1084" x1="39.2796" y1="136.908" x2="426.344" y2="136.894" gradientUnits="userSpaceOnUse">
<stop stop-color="#42E8E0"/>
<stop offset="0.1022" stop-color="#3CCACE"/>
<stop offset="0.3445" stop-color="#2F87A5"/>
<stop offset="0.564" stop-color="#255385"/>
<stop offset="0.7534" stop-color="#1E2D6E"/>
<stop offset="0.905" stop-color="#1A1660"/>
<stop offset="1" stop-color="#180D5B"/>
</linearGradient>
<linearGradient id="paint9_linear_808_1084" x1="39.2796" y1="136.915" x2="236.826" y2="136.907" gradientUnits="userSpaceOnUse">
<stop stop-color="#42E8E0"/>
<stop offset="0.1022" stop-color="#3CCACE"/>
<stop offset="0.3445" stop-color="#2F87A5"/>
<stop offset="0.564" stop-color="#255385"/>
<stop offset="0.7534" stop-color="#1E2D6E"/>
<stop offset="0.905" stop-color="#1A1660"/>
<stop offset="1" stop-color="#180D5B"/>
</linearGradient>
<linearGradient id="paint10_linear_808_1084" x1="91.9248" y1="249.245" x2="415.385" y2="37.2641" gradientUnits="userSpaceOnUse">
<stop stop-color="#42E8E0"/>
<stop offset="0.1022" stop-color="#3CCACE"/>
<stop offset="0.3445" stop-color="#2F87A5"/>
<stop offset="0.564" stop-color="#255385"/>
<stop offset="0.7534" stop-color="#1E2D6E"/>
<stop offset="0.905" stop-color="#1A1660"/>
<stop offset="1" stop-color="#180D5B"/>
</linearGradient>
</defs>
</svg>
